<svg width="159" height="53" viewBox="0 0 159 53" fill="none" xmlns="http://www.w3.org/2000/svg">
<g style="mix-blend-mode:screen">
<path d="M15.165 51.3C14.9517 50.6333 14.7183 49.8933 14.465 49.08C14.225 48.2667 13.9783 47.44 13.725 46.6C13.485 45.7467 13.2583 44.92 13.045 44.12C12.845 43.32 12.6583 42.5867 12.485 41.92C12.325 41.2533 12.2117 40.7 12.145 40.26L12.905 40.16C12.8517 40.3467 12.7383 40.6867 12.565 41.18C12.3917 41.66 12.185 42.24 11.945 42.92C11.705 43.6 11.4383 44.3267 11.145 45.1C10.865 45.86 10.5717 46.6133 10.265 47.36C9.97167 48.1067 9.69167 48.8 9.425 49.44C9.17167 50.0667 8.95167 50.5867 8.765 51L1.685 50.72C1.565 49.6533 1.43833 48.38 1.305 46.9C1.185 45.4067 1.065 43.7667 0.945 41.98C0.825 40.18 0.718333 38.2867 0.625 36.3C0.531667 34.3133 0.458333 32.2733 0.405 30.18C0.351667 28.0867 0.325 26.0067 0.325 23.94L7.285 24.2C7.285 25.3333 7.27167 26.6133 7.245 28.04C7.21833 29.4533 7.185 30.9133 7.145 32.42C7.11833 33.9133 7.09167 35.3733 7.065 36.8C7.03833 38.2267 7.01167 39.5267 6.985 40.7C6.97167 41.8733 6.97167 42.84 6.985 43.6L6.625 43.96C6.77167 43.56 6.95167 43.0133 7.165 42.32C7.39167 41.6133 7.63833 40.8333 7.905 39.98C8.17167 39.1133 8.43833 38.22 8.705 37.3C8.97167 36.38 9.21833 35.48 9.445 34.6C9.67167 33.72 9.865 32.9267 10.025 32.22C10.185 31.5 10.2783 30.92 10.305 30.48L15.025 30.38C15.0383 30.6333 15.0917 31.1267 15.185 31.86C15.2917 32.58 15.425 33.44 15.585 34.44C15.7583 35.44 15.945 36.4933 16.145 37.6C16.345 38.6933 16.5383 39.76 16.725 40.8C16.925 41.8267 17.1117 42.74 17.285 43.54C17.4717 44.3267 17.6317 44.8933 17.765 45.24L16.885 45.3C17.1383 43.9133 17.3583 42.28 17.545 40.4C17.745 38.52 17.9117 36.5667 18.045 34.54C18.1783 32.5133 18.2717 30.58 18.325 28.74C18.3917 26.8867 18.425 25.3133 18.425 24.02L24.725 23.38C24.725 25.7 24.6317 28.06 24.445 30.46C24.2583 32.86 24.0183 35.18 23.725 37.42C23.4317 39.66 23.1317 41.7067 22.825 43.56C22.5183 45.4133 22.2383 46.9667 21.985 48.22C21.7317 49.46 21.5583 50.2867 21.465 50.7L15.165 51.3Z" fill="#025537"/>
</g>
<g style="mix-blend-mode:screen">
<path d="M93.5 42.4062C93.5 43.8229 93.4062 45.0312 93.2188 46.0312C93.0521 47.0312 92.8125 47.8438 92.5 48.4688C92.1875 49.0938 91.8021 49.5521 91.3438 49.8438C90.9062 50.1354 90.4271 50.2812 89.9062 50.2812C89.5104 50.2812 89.0729 50.1458 88.5938 49.875C88.1146 49.6042 87.6562 49.2708 87.2188 48.875C86.8021 48.4792 86.4479 48.0729 86.1562 47.6562C85.8854 47.2396 85.75 46.875 85.75 46.5625C85.75 46.3542 85.7708 46.2188 85.8125 46.1562C85.875 46.1146 85.9479 46.0938 86.0312 46.0938C86.1354 46.1146 86.25 46.1458 86.375 46.1875C86.5208 46.2292 86.6771 46.25 86.8438 46.25C87.4271 46.25 87.8438 45.8854 88.0938 45.1562C88.3646 44.4062 88.5 43.2188 88.5 41.5938V6.25C86.5208 6.41667 84.6146 6.77083 82.7812 7.3125C80.9479 7.83333 79.3333 8.625 77.9375 9.6875C76.5417 10.75 75.4271 12.1354 74.5938 13.8438C73.7604 15.5312 73.3438 17.6146 73.3438 20.0938C73.3438 21.1979 73.4479 22.1979 73.6562 23.0938C73.8854 23.9688 74.1771 24.7604 74.5312 25.4688C74.8854 26.1771 75.2708 26.8021 75.6875 27.3438C76.125 27.8854 76.5521 28.3646 76.9688 28.7812C77.3229 28.6771 77.5729 28.7188 77.7188 28.9062C77.8646 29.0938 77.9375 29.3542 77.9375 29.6875C77.9375 30.1042 77.8438 30.5417 77.6562 31C77.4896 31.4375 77.2604 31.8438 76.9688 32.2188C76.6771 32.5729 76.3438 32.875 75.9688 33.125C75.6146 33.3542 75.25 33.4688 74.875 33.4688C74.7083 33.4688 74.5417 33.4479 74.375 33.4062C74.2292 33.3646 74.0729 33.2708 73.9062 33.125C73.4479 32.7917 72.8958 32.25 72.25 31.5C71.6042 30.7292 70.9896 29.7812 70.4062 28.6562C69.8229 27.5312 69.3229 26.25 68.9062 24.8125C68.4896 23.3542 68.2812 21.7812 68.2812 20.0938C68.2812 17.0104 68.8542 14.2917 70 11.9375C71.1458 9.58333 72.7396 7.61458 74.7812 6.03125C76.8229 4.42708 79.2396 3.21875 82.0312 2.40625C84.8438 1.59375 87.9167 1.1875 91.25 1.1875C92.0208 1.1875 92.9479 1.19792 94.0312 1.21875C95.1354 1.21875 96.2292 1.22917 97.3125 1.25C98.3958 1.27083 99.3646 1.29167 100.219 1.3125C101.094 1.3125 101.688 1.3125 102 1.3125C102.271 1.3125 102.49 1.29167 102.656 1.25C102.844 1.1875 102.99 1.125 103.094 1.0625C103.219 1 103.312 0.947917 103.375 0.90625C103.438 0.84375 103.49 0.8125 103.531 0.8125C103.635 0.8125 103.729 0.885417 103.812 1.03125C103.917 1.15625 104 1.32292 104.062 1.53125C104.146 1.71875 104.208 1.9375 104.25 2.1875C104.292 2.4375 104.312 2.6875 104.312 2.9375C104.312 3.3125 104.26 3.70833 104.156 4.125C104.052 4.52083 103.896 4.88542 103.688 5.21875C103.479 5.53125 103.219 5.79167 102.906 6C102.594 6.20833 102.229 6.3125 101.812 6.3125C101.583 6.3125 101.156 6.3125 100.531 6.3125C99.9271 6.29167 99.2292 6.27083 98.4375 6.25C97.6458 6.22917 96.8125 6.20833 95.9375 6.1875C95.0625 6.16667 94.25 6.14583 93.5 6.125V42.4062Z" fill="#222222"/>
</g>
<g style="mix-blend-mode:screen">
<path d="M103.866 51.496C101.071 51.496 99.0073 50.7173 97.674 49.16C96.3407 47.6027 95.674 45.3627 95.674 42.44C95.674 40.5947 96.0153 39.0373 96.698 37.768C97.3913 36.4987 98.3513 35.5333 99.578 34.872C100.815 34.2107 102.255 33.88 103.898 33.88C105.637 33.88 107.071 34.2853 108.202 35.096C109.333 35.896 110.17 37.016 110.714 38.456C111.269 39.8853 111.546 41.5493 111.546 43.448C111.546 45.08 111.242 46.4987 110.634 47.704C110.026 48.8987 109.146 49.832 107.994 50.504C106.853 51.1653 105.477 51.496 103.866 51.496ZM103.738 48.632C104.602 48.632 105.343 48.472 105.962 48.152C106.581 47.832 107.082 47.4053 107.466 46.872C107.85 46.328 108.133 45.72 108.314 45.048C108.506 44.376 108.602 43.688 108.602 42.984C108.602 41.704 108.426 40.5627 108.074 39.56C107.722 38.5573 107.189 37.7733 106.474 37.208C105.759 36.632 104.847 36.344 103.738 36.344C102.65 36.344 101.738 36.6053 101.002 37.128C100.266 37.6507 99.7113 38.3707 99.338 39.288C98.9753 40.2053 98.794 41.256 98.794 42.44C98.794 44.264 99.2153 45.752 100.058 46.904C100.901 48.056 102.127 48.632 103.738 48.632Z" fill="#222222"/>
</g>
<g style="mix-blend-mode:screen">
<path d="M124.86 35C125.02 34.9573 125.25 34.92 125.548 34.888C125.858 34.856 126.167 34.84 126.476 34.84C126.732 34.84 127.01 34.8507 127.308 34.872C127.618 34.8827 127.863 34.904 128.044 34.936C128.215 35.9707 128.359 37.0267 128.476 38.104C128.594 39.1813 128.652 40.2427 128.652 41.288C128.652 42.7173 128.53 44.0667 128.284 45.336C128.039 46.6053 127.634 47.7253 127.068 48.696C126.514 49.656 125.762 50.4133 124.812 50.968C123.874 51.5227 122.706 51.8 121.308 51.8C119.783 51.8 118.53 51.5013 117.548 50.904C116.567 50.296 115.804 49.4587 115.26 48.392C114.716 47.3147 114.332 46.0773 114.108 44.68C113.895 43.2827 113.788 41.7893 113.788 40.2C113.788 39.2293 113.82 38.248 113.884 37.256C113.948 36.264 114.018 35.2933 114.092 34.344C114.284 34.3333 114.524 34.328 114.812 34.328C115.111 34.328 115.378 34.3333 115.612 34.344C115.943 34.3653 116.268 34.3973 116.588 34.44C116.919 34.472 117.191 34.52 117.404 34.584C117.298 35.544 117.212 36.4933 117.148 37.432C117.084 38.3707 117.052 39.2773 117.052 40.152C117.052 42.0293 117.207 43.6187 117.516 44.92C117.836 46.2213 118.311 47.208 118.94 47.88C119.58 48.552 120.38 48.888 121.34 48.888C122.236 48.888 122.983 48.584 123.58 47.976C124.188 47.368 124.647 46.488 124.956 45.336C125.266 44.1733 125.42 42.76 125.42 41.096C125.42 40.1467 125.372 39.1547 125.276 38.12C125.18 37.0747 125.042 36.0347 124.86 35Z" fill="#222222"/>
</g>
<g style="mix-blend-mode:screen">
<path d="M133.824 36.824C134.144 36.28 134.608 35.784 135.216 35.336C135.834 34.888 136.528 34.5307 137.296 34.264C138.074 33.9973 138.853 33.864 139.632 33.864C140.133 33.864 140.64 33.912 141.152 34.008C141.664 34.0933 142.064 34.216 142.352 34.376L141.712 37.592C141.456 37.4853 141.125 37.3733 140.72 37.256C140.325 37.128 139.834 37.064 139.248 37.064C138.618 37.064 137.989 37.1813 137.36 37.416C136.741 37.64 136.17 37.9493 135.648 38.344C135.125 38.7387 134.688 39.192 134.336 39.704C134.485 40.4507 134.629 41.3627 134.768 42.44C134.917 43.5173 135.05 44.6213 135.168 45.752C135.285 46.8827 135.381 47.9173 135.456 48.856C135.53 49.784 135.568 50.4827 135.568 50.952C135.109 50.9947 134.549 51.0213 133.888 51.032C133.226 51.0427 132.618 51.0427 132.064 51.032C132.064 50.04 132.042 48.9947 132 47.896C131.957 46.7867 131.888 45.656 131.792 44.504C131.706 43.3413 131.594 42.184 131.456 41.032C131.317 39.88 131.152 38.7653 130.96 37.688C130.778 36.6 130.57 35.5707 130.336 34.6C130.624 34.5147 130.96 34.4293 131.344 34.344C131.738 34.2587 132.101 34.184 132.432 34.12C132.762 34.056 132.986 34.0187 133.104 34.008C133.242 34.3707 133.386 34.84 133.536 35.416C133.685 35.992 133.781 36.4613 133.824 36.824Z" fill="#222222"/>
</g>
<g style="mix-blend-mode:screen">
<path d="M151.109 52.296C150.117 52.296 149.13 52.1573 148.149 51.88C147.168 51.6027 146.272 51.2347 145.461 50.776C144.661 50.3067 144.021 49.7893 143.541 49.224C143.616 49.0747 143.722 48.872 143.861 48.616C144 48.36 144.16 48.0933 144.341 47.816C144.522 47.528 144.704 47.2667 144.885 47.032C145.066 46.7867 145.226 46.6 145.365 46.472C145.824 46.984 146.373 47.48 147.013 47.96C147.653 48.4293 148.341 48.8133 149.077 49.112C149.813 49.4 150.549 49.544 151.285 49.544C151.989 49.544 152.624 49.4427 153.189 49.24C153.765 49.0267 154.218 48.7227 154.549 48.328C154.89 47.9333 155.061 47.4587 155.061 46.904C155.061 46.264 154.858 45.7147 154.453 45.256C154.048 44.7867 153.504 44.376 152.821 44.024C152.138 43.6613 151.386 43.3307 150.565 43.032C149.573 42.6693 148.666 42.2747 147.845 41.848C147.034 41.4107 146.384 40.8667 145.893 40.216C145.413 39.5653 145.173 38.7387 145.173 37.736C145.173 36.712 145.461 35.8587 146.037 35.176C146.624 34.4933 147.392 33.976 148.341 33.624C149.301 33.272 150.336 33.096 151.445 33.096C152.682 33.096 153.818 33.256 154.853 33.576C155.898 33.8853 156.698 34.248 157.253 34.664C157.21 34.8453 157.12 35.0853 156.981 35.384C156.842 35.672 156.682 35.9653 156.501 36.264C156.32 36.5627 156.133 36.8347 155.941 37.08C155.429 36.7387 154.805 36.4133 154.069 36.104C153.333 35.7947 152.533 35.64 151.669 35.64C151.093 35.64 150.538 35.7093 150.005 35.848C149.472 35.976 149.034 36.1947 148.693 36.504C148.352 36.8133 148.181 37.2347 148.181 37.768C148.181 38.2267 148.346 38.6373 148.677 39C149.018 39.3627 149.477 39.688 150.053 39.976C150.629 40.2533 151.28 40.52 152.005 40.776C152.88 41.0747 153.69 41.4107 154.437 41.784C155.184 42.1467 155.829 42.568 156.373 43.048C156.928 43.5173 157.36 44.0613 157.669 44.68C157.978 45.288 158.133 45.976 158.133 46.744C158.133 47.9707 157.818 48.9947 157.189 49.816C156.56 50.6373 155.717 51.256 154.661 51.672C153.605 52.088 152.421 52.296 151.109 52.296Z" fill="#222222"/>
</g>
<g style="mix-blend-mode:screen">
<path d="M31.4413 51.272C30.1293 51.272 28.9293 51.096 27.8413 50.744C26.7533 50.3813 25.8839 49.8 25.2333 49C24.5933 48.1893 24.2733 47.1173 24.2733 45.784C24.2733 44.4507 24.6466 43.3787 25.3932 42.568C26.1506 41.7467 27.1426 41.1547 28.3693 40.792C29.6066 40.4187 30.9346 40.232 32.3533 40.232C32.9079 40.232 33.4413 40.2747 33.9533 40.36C34.4653 40.4453 34.9133 40.5467 35.2973 40.664C35.6919 40.7813 35.9746 40.8933 36.1453 41C36.1346 40.7227 36.0759 40.4293 35.9693 40.12C35.8733 39.8107 35.7346 39.5493 35.5533 39.336C35.2333 38.8987 34.7959 38.536 34.2413 38.248C33.6973 37.9493 32.9773 37.8 32.0813 37.8C31.1746 37.8 30.3746 38.008 29.6813 38.424C28.9879 38.8293 28.4599 39.288 28.0973 39.8L24.1933 37.288C24.6733 36.6053 25.3186 36.008 26.1293 35.496C26.9506 34.984 27.8786 34.584 28.9133 34.296C29.9586 34.008 31.0519 33.864 32.1933 33.864C34.0813 33.864 35.6119 34.1733 36.7853 34.792C37.9586 35.4107 38.8279 36.2747 39.3933 37.384C39.6599 37.9173 39.8786 38.504 40.0493 39.144C40.2199 39.784 40.3373 40.52 40.4013 41.352C40.4439 42.0667 40.4759 42.7333 40.4973 43.352C40.5186 43.9707 40.5399 44.5573 40.5613 45.112C40.5826 45.9227 40.6733 46.4507 40.8333 46.696C40.9933 46.9413 41.2226 47.064 41.5213 47.064C41.7986 47.064 42.0439 46.9893 42.2573 46.84C42.4813 46.68 42.6253 46.472 42.6893 46.216L44.3533 49.4C44.2359 49.8907 43.9053 50.3013 43.3613 50.632C42.8173 50.9627 42.1293 51.128 41.2973 51.128C40.6893 51.128 40.1133 51.0267 39.5693 50.824C39.0253 50.6107 38.5773 50.328 38.2253 49.976C37.8733 49.6133 37.6653 49.2027 37.6013 48.744C37.4306 49.1493 37.0733 49.5493 36.5293 49.944C35.9853 50.328 35.2866 50.648 34.4333 50.904C33.5799 51.1493 32.5826 51.272 31.4413 51.272ZM32.5133 47.512C33.0146 47.512 33.5266 47.4373 34.0493 47.288C34.5826 47.128 35.0626 46.9307 35.4893 46.696C35.9266 46.4613 36.2626 46.2213 36.4973 45.976C36.4759 45.6453 36.4546 45.304 36.4333 44.952C36.4226 44.6 36.4226 44.3013 36.4333 44.056C36.1986 43.96 35.7506 43.8587 35.0893 43.752C34.4386 43.6347 33.7559 43.576 33.0413 43.576C32.3906 43.576 31.7826 43.6453 31.2173 43.784C30.6519 43.9227 30.1879 44.136 29.8253 44.424C29.4733 44.712 29.2973 45.0853 29.2973 45.544C29.2973 46.0347 29.4306 46.424 29.6973 46.712C29.9639 47 30.3373 47.208 30.8173 47.336C31.2973 47.4533 31.8626 47.512 32.5133 47.512Z" fill="#025537"/>
</g>
<g style="mix-blend-mode:screen">
<path d="M71.4413 51.272C70.1293 51.272 68.9293 51.096 67.8413 50.744C66.7533 50.3813 65.8839 49.8 65.2333 49C64.5933 48.1893 64.2733 47.1173 64.2733 45.784C64.2733 44.4507 64.6466 43.3787 65.3932 42.568C66.1506 41.7467 67.1426 41.1547 68.3693 40.792C69.6066 40.4187 70.9346 40.232 72.3533 40.232C72.9079 40.232 73.4413 40.2747 73.9533 40.36C74.4653 40.4453 74.9133 40.5467 75.2973 40.664C75.6919 40.7813 75.9746 40.8933 76.1453 41C76.1346 40.7227 76.0759 40.4293 75.9693 40.12C75.8733 39.8107 75.7346 39.5493 75.5533 39.336C75.2333 38.8987 74.7959 38.536 74.2413 38.248C73.6973 37.9493 72.9773 37.8 72.0813 37.8C71.1746 37.8 70.3746 38.008 69.6813 38.424C68.9879 38.8293 68.4599 39.288 68.0973 39.8L64.1933 37.288C64.6733 36.6053 65.3186 36.008 66.1293 35.496C66.9506 34.984 67.8786 34.584 68.9133 34.296C69.9586 34.008 71.0519 33.864 72.1933 33.864C74.0813 33.864 75.6119 34.1733 76.7853 34.792C77.9586 35.4107 78.8279 36.2747 79.3933 37.384C79.6599 37.9173 79.8786 38.504 80.0493 39.144C80.2199 39.784 80.3373 40.52 80.4013 41.352C80.4439 42.0667 80.4759 42.7333 80.4973 43.352C80.5186 43.9707 80.5399 44.5573 80.5613 45.112C80.5826 45.9227 80.6733 46.4507 80.8333 46.696C80.9933 46.9413 81.2226 47.064 81.5213 47.064C81.7986 47.064 82.0439 46.9893 82.2573 46.84C82.4813 46.68 82.6253 46.472 82.6893 46.216L84.3533 49.4C84.2359 49.8907 83.9053 50.3013 83.3613 50.632C82.8173 50.9627 82.1293 51.128 81.2973 51.128C80.6893 51.128 80.1133 51.0267 79.5693 50.824C79.0253 50.6107 78.5773 50.328 78.2253 49.976C77.8733 49.6133 77.6653 49.2027 77.6013 48.744C77.4306 49.1493 77.0733 49.5493 76.5293 49.944C75.9853 50.328 75.2866 50.648 74.4333 50.904C73.5799 51.1493 72.5826 51.272 71.4413 51.272ZM72.5133 47.512C73.0146 47.512 73.5266 47.4373 74.0493 47.288C74.5826 47.128 75.0626 46.9307 75.4893 46.696C75.9266 46.4613 76.2626 46.2213 76.4973 45.976C76.4759 45.6453 76.4546 45.304 76.4333 44.952C76.4226 44.6 76.4226 44.3013 76.4333 44.056C76.1986 43.96 75.7506 43.8587 75.0893 43.752C74.4386 43.6347 73.7559 43.576 73.0413 43.576C72.3906 43.576 71.7826 43.6453 71.2173 43.784C70.6519 43.9227 70.1879 44.136 69.8253 44.424C69.4733 44.712 69.2973 45.0853 69.2973 45.544C69.2973 46.0347 69.4306 46.424 69.6973 46.712C69.9639 47 70.3373 47.208 70.8173 47.336C71.2973 47.4533 71.8626 47.512 72.5133 47.512Z" fill="#025537"/>
</g>
<g style="mix-blend-mode:screen">
<path d="M57.844 51.832C57.6947 51.512 57.46 51.1013 57.14 50.6C56.8307 50.088 56.4733 49.5493 56.068 48.984C55.6733 48.408 55.2573 47.848 54.82 47.304C54.3933 46.76 53.9827 46.2853 53.588 45.88C53.1933 45.464 52.852 45.1707 52.564 45C52.4147 45.096 52.228 45.2347 52.004 45.416C51.78 45.5867 51.572 45.752 51.38 45.912C51.188 46.072 51.0547 46.1893 50.98 46.264C50.9693 46.7227 50.9533 47.2027 50.932 47.704C50.9107 48.2053 50.8893 48.696 50.868 49.176C50.8467 49.6453 50.82 50.0773 50.788 50.472C50.7667 50.856 50.7453 51.16 50.724 51.384C50.3293 51.4267 49.9347 51.4587 49.54 51.48C49.1453 51.5013 48.7507 51.512 48.356 51.512C47.844 51.512 47.3587 51.4907 46.9 51.448C46.4413 51.416 46.0413 51.384 45.7 51.352C45.7107 51.096 45.7373 50.536 45.78 49.672C45.8333 48.7973 45.8867 47.7253 45.94 46.456C46.004 45.176 46.068 43.7893 46.132 42.296C46.2067 40.792 46.276 39.2827 46.34 37.768C46.4147 36.2427 46.4787 34.808 46.532 33.464C46.596 32.1093 46.644 30.9413 46.676 29.96C46.708 28.968 46.724 28.264 46.724 27.848C47.0653 27.816 47.4173 27.7893 47.78 27.768C48.1427 27.7467 48.5 27.736 48.852 27.736C49.3533 27.736 49.8387 27.7627 50.308 27.816C50.788 27.8693 51.2307 27.9547 51.636 28.072C51.636 28.904 51.6253 29.816 51.604 30.808C51.5933 31.8 51.5667 32.808 51.524 33.832C51.492 34.856 51.4547 35.832 51.412 36.76C51.3693 37.688 51.3267 38.5147 51.284 39.24C51.252 39.9547 51.22 40.4987 51.188 40.872C51.732 40.3067 52.3667 39.7307 53.092 39.144C53.8173 38.5573 54.5693 37.992 55.348 37.448C56.1267 36.8933 56.8787 36.376 57.604 35.896C58.34 35.4053 58.98 34.9787 59.524 34.616C59.6947 34.776 59.908 35.016 60.164 35.336C60.42 35.6453 60.6813 35.992 60.948 36.376C61.2253 36.7493 61.4813 37.112 61.716 37.464C61.9507 37.816 62.1373 38.1093 62.276 38.344C61.8493 38.6107 61.348 38.9307 60.772 39.304C60.196 39.6667 59.604 40.0453 58.996 40.44C58.3987 40.8347 57.844 41.208 57.332 41.56C56.82 41.912 56.42 42.1947 56.132 42.408C56.4093 42.5893 56.7453 42.8667 57.14 43.24C57.5347 43.6133 57.9613 44.0507 58.42 44.552C58.8893 45.0533 59.364 45.6027 59.844 46.2C60.324 46.7867 60.7987 47.4053 61.268 48.056C61.7373 48.696 62.164 49.3413 62.548 49.992C62.388 50.088 62.1 50.2267 61.684 50.408C61.268 50.5787 60.804 50.7653 60.292 50.968C59.78 51.1707 59.3 51.352 58.852 51.512C58.404 51.672 58.068 51.7787 57.844 51.832Z" fill="#025537"/>
</g>
</svg>
