<svg width="154" height="45" viewBox="0 0 154 45" fill="none" xmlns="http://www.w3.org/2000/svg">
<g style="mix-blend-mode:screen">
<path d="M12.332 43.24C12.1613 42.7067 11.9747 42.1147 11.772 41.464C11.58 40.8133 11.3827 40.152 11.18 39.48C10.988 38.7973 10.8067 38.136 10.636 37.496C10.476 36.856 10.3267 36.2693 10.188 35.736C10.06 35.2027 9.96933 34.76 9.916 34.408L10.524 34.328C10.4813 34.4773 10.3907 34.7493 10.252 35.144C10.1133 35.528 9.948 35.992 9.756 36.536C9.564 37.08 9.35067 37.6613 9.116 38.28C8.892 38.888 8.65733 39.4907 8.412 40.088C8.17733 40.6853 7.95333 41.24 7.74 41.752C7.53733 42.2533 7.36133 42.6693 7.212 43L1.548 42.776C1.452 41.9227 1.35067 40.904 1.244 39.72C1.148 38.5253 1.052 37.2133 0.956 35.784C0.86 34.344 0.774667 32.8293 0.7 31.24C0.625333 29.6507 0.566667 28.0187 0.524 26.344C0.481333 24.6693 0.46 23.0053 0.46 21.352L6.028 21.56C6.028 22.4667 6.01733 23.4907 5.996 24.632C5.97467 25.7627 5.948 26.9307 5.916 28.136C5.89467 29.3307 5.87333 30.4987 5.852 31.64C5.83067 32.7813 5.80933 33.8213 5.788 34.76C5.77733 35.6987 5.77733 36.472 5.788 37.08L5.5 37.368C5.61733 37.048 5.76133 36.6107 5.932 36.056C6.11333 35.4907 6.31067 34.8667 6.524 34.184C6.73733 33.4907 6.95067 32.776 7.164 32.04C7.37733 31.304 7.57467 30.584 7.756 29.88C7.93733 29.176 8.092 28.5413 8.22 27.976C8.348 27.4 8.42267 26.936 8.444 26.584L12.22 26.504C12.2307 26.7067 12.2733 27.1013 12.348 27.688C12.4333 28.264 12.54 28.952 12.668 29.752C12.8067 30.552 12.956 31.3947 13.116 32.28C13.276 33.1547 13.4307 34.008 13.58 34.84C13.74 35.6613 13.8893 36.392 14.028 37.032C14.1773 37.6613 14.3053 38.1147 14.412 38.392L13.708 38.44C13.9107 37.3307 14.0867 36.024 14.236 34.52C14.396 33.016 14.5293 31.4533 14.636 29.832C14.7427 28.2107 14.8173 26.664 14.86 25.192C14.9133 23.7093 14.94 22.4507 14.94 21.416L19.98 20.904C19.98 22.76 19.9053 24.648 19.756 26.568C19.6067 28.488 19.4147 30.344 19.18 32.136C18.9453 33.928 18.7053 35.5653 18.46 37.048C18.2147 38.5307 17.9907 39.7733 17.788 40.776C17.5853 41.768 17.4467 42.4293 17.372 42.76L12.332 43.24Z" fill="#222222"/>
</g>
<g style="mix-blend-mode:screen">
<path d="M87.5156 35.9678C87.5156 37.1631 87.4365 38.1826 87.2783 39.0264C87.1377 39.8701 86.9355 40.5557 86.6719 41.083C86.4082 41.6104 86.083 41.9971 85.6963 42.2432C85.3271 42.4893 84.9229 42.6123 84.4834 42.6123C84.1494 42.6123 83.7803 42.498 83.376 42.2695C82.9717 42.041 82.585 41.7598 82.2158 41.4258C81.8643 41.0918 81.5654 40.749 81.3193 40.3975C81.0908 40.0459 80.9766 39.7383 80.9766 39.4746C80.9766 39.2988 80.9941 39.1846 81.0293 39.1318C81.082 39.0967 81.1436 39.0791 81.2139 39.0791C81.3018 39.0967 81.3984 39.123 81.5039 39.1582C81.627 39.1934 81.7588 39.2109 81.8994 39.2109C82.3916 39.2109 82.7432 38.9033 82.9541 38.2881C83.1826 37.6553 83.2969 36.6533 83.2969 35.2822V5.46094C81.627 5.60156 80.0186 5.90039 78.4717 6.35742C76.9248 6.79688 75.5625 7.46484 74.3848 8.36133C73.207 9.25781 72.2666 10.4268 71.5635 11.8682C70.8604 13.292 70.5088 15.0498 70.5088 17.1416C70.5088 18.0732 70.5967 18.917 70.7725 19.6729C70.9658 20.4111 71.2119 21.0791 71.5107 21.6768C71.8096 22.2744 72.1348 22.8018 72.4863 23.2588C72.8555 23.7158 73.2158 24.1201 73.5674 24.4717C73.8662 24.3838 74.0771 24.4189 74.2002 24.5771C74.3232 24.7354 74.3848 24.9551 74.3848 25.2363C74.3848 25.5879 74.3057 25.957 74.1475 26.3438C74.0068 26.7129 73.8135 27.0557 73.5674 27.3721C73.3213 27.6709 73.04 27.9258 72.7236 28.1367C72.4248 28.3301 72.1172 28.4268 71.8008 28.4268C71.6602 28.4268 71.5195 28.4092 71.3789 28.374C71.2559 28.3389 71.124 28.2598 70.9834 28.1367C70.5967 27.8555 70.1309 27.3984 69.5859 26.7656C69.041 26.1152 68.5225 25.3154 68.0303 24.3662C67.5381 23.417 67.1162 22.3359 66.7646 21.123C66.4131 19.8926 66.2373 18.5654 66.2373 17.1416C66.2373 14.54 66.7207 12.2461 67.6875 10.2598C68.6543 8.27344 69.999 6.6123 71.7217 5.27637C73.4443 3.92285 75.4834 2.90332 77.8389 2.21777C80.2119 1.53223 82.8047 1.18945 85.6172 1.18945C86.2676 1.18945 87.0498 1.19824 87.9639 1.21582C88.8955 1.21582 89.8184 1.22461 90.7324 1.24219C91.6465 1.25977 92.4639 1.27734 93.1846 1.29492C93.9229 1.29492 94.4238 1.29492 94.6875 1.29492C94.916 1.29492 95.1006 1.27734 95.2412 1.24219C95.3994 1.18945 95.5225 1.13672 95.6104 1.08398C95.7158 1.03125 95.7949 0.987305 95.8477 0.952148C95.9004 0.899414 95.9443 0.873047 95.9795 0.873047C96.0674 0.873047 96.1465 0.93457 96.2168 1.05762C96.3047 1.16309 96.375 1.30371 96.4277 1.47949C96.498 1.6377 96.5508 1.82227 96.5859 2.0332C96.6211 2.24414 96.6387 2.45508 96.6387 2.66602C96.6387 2.98242 96.5947 3.31641 96.5068 3.66797C96.4189 4.00195 96.2871 4.30957 96.1113 4.59082C95.9355 4.85449 95.7158 5.07422 95.4521 5.25C95.1885 5.42578 94.8809 5.51367 94.5293 5.51367C94.3359 5.51367 93.9756 5.51367 93.4482 5.51367C92.9385 5.49609 92.3496 5.47852 91.6816 5.46094C91.0137 5.44336 90.3105 5.42578 89.5723 5.4082C88.834 5.39062 88.1484 5.37305 87.5156 5.35547V35.9678Z" fill="#14B8A6"/>
</g>
<g style="mix-blend-mode:screen">
<path d="M98.866 44.496C96.0713 44.496 94.0073 43.7173 92.674 42.16C91.3407 40.6027 90.674 38.3627 90.674 35.44C90.674 33.5947 91.0153 32.0373 91.698 30.768C92.3913 29.4987 93.3513 28.5333 94.578 27.872C95.8153 27.2107 97.2553 26.88 98.898 26.88C100.637 26.88 102.071 27.2853 103.202 28.096C104.333 28.896 105.17 30.016 105.714 31.456C106.269 32.8853 106.546 34.5493 106.546 36.448C106.546 38.08 106.242 39.4987 105.634 40.704C105.026 41.8987 104.146 42.832 102.994 43.504C101.853 44.1653 100.477 44.496 98.866 44.496ZM98.738 41.632C99.602 41.632 100.343 41.472 100.962 41.152C101.581 40.832 102.082 40.4053 102.466 39.872C102.85 39.328 103.133 38.72 103.314 38.048C103.506 37.376 103.602 36.688 103.602 35.984C103.602 34.704 103.426 33.5627 103.074 32.56C102.722 31.5573 102.189 30.7733 101.474 30.208C100.759 29.632 99.8473 29.344 98.738 29.344C97.65 29.344 96.738 29.6053 96.002 30.128C95.266 30.6507 94.7113 31.3707 94.338 32.288C93.9753 33.2053 93.794 34.256 93.794 35.44C93.794 37.264 94.2153 38.752 95.058 39.904C95.9007 41.056 97.1273 41.632 98.738 41.632Z" fill="#14B8A6"/>
</g>
<g style="mix-blend-mode:screen">
<path d="M119.86 28C120.02 27.9573 120.25 27.92 120.548 27.888C120.858 27.856 121.167 27.84 121.476 27.84C121.732 27.84 122.01 27.8507 122.308 27.872C122.618 27.8827 122.863 27.904 123.044 27.936C123.215 28.9707 123.359 30.0267 123.476 31.104C123.594 32.1813 123.652 33.2427 123.652 34.288C123.652 35.7173 123.53 37.0667 123.284 38.336C123.039 39.6053 122.634 40.7253 122.068 41.696C121.514 42.656 120.762 43.4133 119.812 43.968C118.874 44.5227 117.706 44.8 116.308 44.8C114.783 44.8 113.53 44.5013 112.548 43.904C111.567 43.296 110.804 42.4587 110.26 41.392C109.716 40.3147 109.332 39.0773 109.108 37.68C108.895 36.2827 108.788 34.7893 108.788 33.2C108.788 32.2293 108.82 31.248 108.884 30.256C108.948 29.264 109.018 28.2933 109.092 27.344C109.284 27.3333 109.524 27.328 109.812 27.328C110.111 27.328 110.378 27.3333 110.612 27.344C110.943 27.3653 111.268 27.3973 111.588 27.44C111.919 27.472 112.191 27.52 112.404 27.584C112.298 28.544 112.212 29.4933 112.148 30.432C112.084 31.3707 112.052 32.2773 112.052 33.152C112.052 35.0293 112.207 36.6187 112.516 37.92C112.836 39.2213 113.311 40.208 113.94 40.88C114.58 41.552 115.38 41.888 116.34 41.888C117.236 41.888 117.983 41.584 118.58 40.976C119.188 40.368 119.647 39.488 119.956 38.336C120.266 37.1733 120.42 35.76 120.42 34.096C120.42 33.1467 120.372 32.1547 120.276 31.12C120.18 30.0747 120.042 29.0347 119.86 28Z" fill="#14B8A6"/>
</g>
<g style="mix-blend-mode:screen">
<path d="M129.824 28.824C130.144 28.28 130.608 27.784 131.216 27.336C131.834 26.888 132.528 26.5307 133.296 26.264C134.074 25.9973 134.853 25.864 135.632 25.864C136.133 25.864 136.64 25.912 137.152 26.008C137.664 26.0933 138.064 26.216 138.352 26.376L137.712 29.592C137.456 29.4853 137.125 29.3733 136.72 29.256C136.325 29.128 135.834 29.064 135.248 29.064C134.618 29.064 133.989 29.1813 133.36 29.416C132.741 29.64 132.17 29.9493 131.648 30.344C131.125 30.7387 130.688 31.192 130.336 31.704C130.485 32.4507 130.629 33.3627 130.768 34.44C130.917 35.5173 131.05 36.6213 131.168 37.752C131.285 38.8827 131.381 39.9173 131.456 40.856C131.53 41.784 131.568 42.4827 131.568 42.952C131.109 42.9947 130.549 43.0213 129.888 43.032C129.226 43.0427 128.618 43.0427 128.064 43.032C128.064 42.04 128.042 40.9947 128 39.896C127.957 38.7867 127.888 37.656 127.792 36.504C127.706 35.3413 127.594 34.184 127.456 33.032C127.317 31.88 127.152 30.7653 126.96 29.688C126.778 28.6 126.57 27.5707 126.336 26.6C126.624 26.5147 126.96 26.4293 127.344 26.344C127.738 26.2587 128.101 26.184 128.432 26.12C128.762 26.056 128.986 26.0187 129.104 26.008C129.242 26.3707 129.386 26.84 129.536 27.416C129.685 27.992 129.781 28.4613 129.824 28.824Z" fill="#14B8A6"/>
</g>
<g style="mix-blend-mode:screen">
<path d="M146.109 44.296C145.117 44.296 144.13 44.1573 143.149 43.88C142.168 43.6027 141.272 43.2347 140.461 42.776C139.661 42.3067 139.021 41.7893 138.541 41.224C138.616 41.0747 138.722 40.872 138.861 40.616C139 40.36 139.16 40.0933 139.341 39.816C139.522 39.528 139.704 39.2667 139.885 39.032C140.066 38.7867 140.226 38.6 140.365 38.472C140.824 38.984 141.373 39.48 142.013 39.96C142.653 40.4293 143.341 40.8133 144.077 41.112C144.813 41.4 145.549 41.544 146.285 41.544C146.989 41.544 147.624 41.4427 148.189 41.24C148.765 41.0267 149.218 40.7227 149.549 40.328C149.89 39.9333 150.061 39.4587 150.061 38.904C150.061 38.264 149.858 37.7147 149.453 37.256C149.048 36.7867 148.504 36.376 147.821 36.024C147.138 35.6613 146.386 35.3307 145.565 35.032C144.573 34.6693 143.666 34.2747 142.845 33.848C142.034 33.4107 141.384 32.8667 140.893 32.216C140.413 31.5653 140.173 30.7387 140.173 29.736C140.173 28.712 140.461 27.8587 141.037 27.176C141.624 26.4933 142.392 25.976 143.341 25.624C144.301 25.272 145.336 25.096 146.445 25.096C147.682 25.096 148.818 25.256 149.853 25.576C150.898 25.8853 151.698 26.248 152.253 26.664C152.21 26.8453 152.12 27.0853 151.981 27.384C151.842 27.672 151.682 27.9653 151.501 28.264C151.32 28.5627 151.133 28.8347 150.941 29.08C150.429 28.7387 149.805 28.4133 149.069 28.104C148.333 27.7947 147.533 27.64 146.669 27.64C146.093 27.64 145.538 27.7093 145.005 27.848C144.472 27.976 144.034 28.1947 143.693 28.504C143.352 28.8133 143.181 29.2347 143.181 29.768C143.181 30.2267 143.346 30.6373 143.677 31C144.018 31.3627 144.477 31.688 145.053 31.976C145.629 32.2533 146.28 32.52 147.005 32.776C147.88 33.0747 148.69 33.4107 149.437 33.784C150.184 34.1467 150.829 34.568 151.373 35.048C151.928 35.5173 152.36 36.0613 152.669 36.68C152.978 37.288 153.133 37.976 153.133 38.744C153.133 39.9707 152.818 40.9947 152.189 41.816C151.56 42.6373 150.717 43.256 149.661 43.672C148.605 44.088 147.421 44.296 146.109 44.296Z" fill="#14B8A6"/>
</g>
<g style="mix-blend-mode:screen">
<path d="M28.2262 44.255C26.9962 44.255 25.8712 44.09 24.8512 43.76C23.8312 43.42 23.0162 42.875 22.4062 42.125C21.8062 41.365 21.5062 40.36 21.5062 39.11C21.5062 37.86 21.8562 36.855 22.5562 36.095C23.2662 35.325 24.1962 34.77 25.3462 34.43C26.5062 34.08 27.7512 33.905 29.0812 33.905C29.6012 33.905 30.1012 33.945 30.5812 34.025C31.0612 34.105 31.4812 34.2 31.8412 34.31C32.2112 34.42 32.4762 34.525 32.6362 34.625C32.6262 34.365 32.5712 34.09 32.4712 33.8C32.3812 33.51 32.2512 33.265 32.0812 33.065C31.7812 32.655 31.3712 32.315 30.8512 32.045C30.3412 31.765 29.6662 31.625 28.8262 31.625C27.9762 31.625 27.2262 31.82 26.5762 32.21C25.9262 32.59 25.4312 33.02 25.0912 33.5L21.4312 31.145C21.8812 30.505 22.4862 29.945 23.2462 29.465C24.0162 28.985 24.8862 28.61 25.8562 28.34C26.8362 28.07 27.8612 27.935 28.9312 27.935C30.7012 27.935 32.1362 28.225 33.2362 28.805C34.3362 29.385 35.1512 30.195 35.6812 31.235C35.9312 31.735 36.1362 32.285 36.2962 32.885C36.4562 33.485 36.5662 34.175 36.6262 34.955C36.6662 35.625 36.6962 36.25 36.7162 36.83C36.7362 37.41 36.7562 37.96 36.7762 38.48C36.7962 39.24 36.8812 39.735 37.0312 39.965C37.1812 40.195 37.3962 40.31 37.6762 40.31C37.9362 40.31 38.1662 40.24 38.3662 40.1C38.5762 39.95 38.7112 39.755 38.7712 39.515L40.3312 42.5C40.2212 42.96 39.9112 43.345 39.4012 43.655C38.8912 43.965 38.2462 44.12 37.4662 44.12C36.8962 44.12 36.3562 44.025 35.8462 43.835C35.3362 43.635 34.9162 43.37 34.5862 43.04C34.2562 42.7 34.0612 42.315 34.0012 41.885C33.8412 42.265 33.5062 42.64 32.9962 43.01C32.4862 43.37 31.8312 43.67 31.0312 43.91C30.2312 44.14 29.2962 44.255 28.2262 44.255ZM29.2312 40.73C29.7012 40.73 30.1812 40.66 30.6712 40.52C31.1712 40.37 31.6212 40.185 32.0212 39.965C32.4312 39.745 32.7462 39.52 32.9662 39.29C32.9462 38.98 32.9262 38.66 32.9062 38.33C32.8962 38 32.8962 37.72 32.9062 37.49C32.6862 37.4 32.2662 37.305 31.6462 37.205C31.0362 37.095 30.3962 37.04 29.7262 37.04C29.1162 37.04 28.5462 37.105 28.0162 37.235C27.4862 37.365 27.0512 37.565 26.7112 37.835C26.3812 38.105 26.2162 38.455 26.2162 38.885C26.2162 39.345 26.3412 39.71 26.5912 39.98C26.8412 40.25 27.1912 40.445 27.6412 40.565C28.0912 40.675 28.6212 40.73 29.2312 40.73Z" fill="#222222"/>
</g>
<g style="mix-blend-mode:screen">
<path d="M67.2262 44.255C65.9962 44.255 64.8712 44.09 63.8512 43.76C62.8312 43.42 62.0162 42.875 61.4062 42.125C60.8062 41.365 60.5062 40.36 60.5062 39.11C60.5062 37.86 60.8562 36.855 61.5562 36.095C62.2662 35.325 63.1962 34.77 64.3462 34.43C65.5062 34.08 66.7512 33.905 68.0812 33.905C68.6012 33.905 69.1012 33.945 69.5812 34.025C70.0612 34.105 70.4812 34.2 70.8412 34.31C71.2112 34.42 71.4762 34.525 71.6362 34.625C71.6262 34.365 71.5712 34.09 71.4712 33.8C71.3812 33.51 71.2512 33.265 71.0812 33.065C70.7812 32.655 70.3712 32.315 69.8512 32.045C69.3412 31.765 68.6662 31.625 67.8262 31.625C66.9762 31.625 66.2262 31.82 65.5762 32.21C64.9262 32.59 64.4312 33.02 64.0912 33.5L60.4312 31.145C60.8812 30.505 61.4862 29.945 62.2462 29.465C63.0162 28.985 63.8862 28.61 64.8562 28.34C65.8362 28.07 66.8612 27.935 67.9312 27.935C69.7012 27.935 71.1362 28.225 72.2362 28.805C73.3362 29.385 74.1512 30.195 74.6812 31.235C74.9312 31.735 75.1362 32.285 75.2962 32.885C75.4562 33.485 75.5662 34.175 75.6262 34.955C75.6662 35.625 75.6962 36.25 75.7162 36.83C75.7362 37.41 75.7562 37.96 75.7762 38.48C75.7962 39.24 75.8812 39.735 76.0312 39.965C76.1812 40.195 76.3962 40.31 76.6762 40.31C76.9362 40.31 77.1662 40.24 77.3662 40.1C77.5762 39.95 77.7112 39.755 77.7712 39.515L79.3312 42.5C79.2212 42.96 78.9112 43.345 78.4012 43.655C77.8912 43.965 77.2462 44.12 76.4662 44.12C75.8962 44.12 75.3562 44.025 74.8462 43.835C74.3362 43.635 73.9162 43.37 73.5862 43.04C73.2562 42.7 73.0612 42.315 73.0012 41.885C72.8412 42.265 72.5062 42.64 71.9962 43.01C71.4862 43.37 70.8312 43.67 70.0312 43.91C69.2312 44.14 68.2962 44.255 67.2262 44.255ZM68.2312 40.73C68.7012 40.73 69.1812 40.66 69.6712 40.52C70.1712 40.37 70.6212 40.185 71.0212 39.965C71.4312 39.745 71.7462 39.52 71.9662 39.29C71.9462 38.98 71.9262 38.66 71.9062 38.33C71.8962 38 71.8962 37.72 71.9062 37.49C71.6862 37.4 71.2662 37.305 70.6462 37.205C70.0362 37.095 69.3962 37.04 68.7262 37.04C68.1162 37.04 67.5462 37.105 67.0162 37.235C66.4862 37.365 66.0512 37.565 65.7112 37.835C65.3812 38.105 65.2162 38.455 65.2162 38.885C65.2162 39.345 65.3412 39.71 65.5912 39.98C65.8412 40.25 66.1912 40.445 66.6412 40.565C67.0912 40.675 67.6212 40.73 68.2312 40.73Z" fill="#222222"/>
</g>
<g style="mix-blend-mode:screen">
<path d="M54.1663 43.78C54.0263 43.48 53.8063 43.095 53.5063 42.625C53.2163 42.145 52.8813 41.64 52.5013 41.11C52.1313 40.57 51.7413 40.045 51.3313 39.535C50.9313 39.025 50.5463 38.58 50.1763 38.2C49.8063 37.81 49.4863 37.535 49.2163 37.375C49.0763 37.465 48.9013 37.595 48.6913 37.765C48.4813 37.925 48.2863 38.08 48.1063 38.23C47.9263 38.38 47.8013 38.49 47.7313 38.56C47.7213 38.99 47.7063 39.44 47.6863 39.91C47.6663 40.38 47.6463 40.84 47.6263 41.29C47.6063 41.73 47.5813 42.135 47.5513 42.505C47.5313 42.865 47.5113 43.15 47.4913 43.36C47.1213 43.4 46.7513 43.43 46.3813 43.45C46.0113 43.47 45.6413 43.48 45.2713 43.48C44.7913 43.48 44.3363 43.46 43.9063 43.42C43.4763 43.39 43.1013 43.36 42.7813 43.33C42.7913 43.09 42.8163 42.565 42.8563 41.755C42.9063 40.935 42.9563 39.93 43.0063 38.74C43.0663 37.54 43.1263 36.24 43.1863 34.84C43.2563 33.43 43.3213 32.015 43.3813 30.595C43.4513 29.165 43.5113 27.82 43.5613 26.56C43.6213 25.29 43.6663 24.195 43.6963 23.275C43.7263 22.345 43.7413 21.685 43.7413 21.295C44.0613 21.265 44.3913 21.24 44.7313 21.22C45.0713 21.2 45.4063 21.19 45.7363 21.19C46.2063 21.19 46.6613 21.215 47.1013 21.265C47.5513 21.315 47.9663 21.395 48.3463 21.505C48.3463 22.285 48.3363 23.14 48.3163 24.07C48.3063 25 48.2813 25.945 48.2413 26.905C48.2113 27.865 48.1763 28.78 48.1363 29.65C48.0963 30.52 48.0563 31.295 48.0163 31.975C47.9863 32.645 47.9563 33.155 47.9263 33.505C48.4363 32.975 49.0313 32.435 49.7113 31.885C50.3913 31.335 51.0963 30.805 51.8263 30.295C52.5563 29.775 53.2613 29.29 53.9413 28.84C54.6313 28.38 55.2313 27.98 55.7413 27.64C55.9013 27.79 56.1013 28.015 56.3413 28.315C56.5813 28.605 56.8263 28.93 57.0762 29.29C57.3363 29.64 57.5763 29.98 57.7963 30.31C58.0163 30.64 58.1913 30.915 58.3213 31.135C57.9213 31.385 57.4513 31.685 56.9113 32.035C56.3713 32.375 55.8163 32.73 55.2463 33.1C54.6863 33.47 54.1663 33.82 53.6863 34.15C53.2063 34.48 52.8313 34.745 52.5613 34.945C52.8213 35.115 53.1363 35.375 53.5063 35.725C53.8763 36.075 54.2763 36.485 54.7063 36.955C55.1463 37.425 55.5913 37.94 56.0413 38.5C56.4913 39.05 56.9363 39.63 57.3763 40.24C57.8163 40.84 58.2163 41.445 58.5763 42.055C58.4263 42.145 58.1563 42.275 57.7663 42.445C57.3763 42.605 56.9413 42.78 56.4613 42.97C55.9813 43.16 55.5313 43.33 55.1113 43.48C54.6913 43.63 54.3763 43.73 54.1663 43.78Z" fill="#222222"/>
</g>
</svg>
